<svg width="338" height="331" viewBox="0 0 338 331" fill="none" xmlns="http://www.w3.org/2000/svg">
<path d="M326.824 128.167C323.17 84.005 321.344 61.9238 312.84 47.6377C288.494 6.73209 217.709 -2.99693 173.003 0.733909C113.152 5.72727 44.6829 39.4585 14.544 104.585C-12.83 163.738 -0.207732 230.696 41.039 274.496C116.651 354.79 272.621 340.454 310.722 287.767C325.927 266.74 327.023 233.156 328.634 183.821C329.408 160.073 327.897 141.149 326.824 128.167Z" fill="#F4F7FA"/>
<path d="M298.144 27.0187C294.274 23.8801 288.404 22.1708 283.442 21.8256C248.271 19.3821 243.138 91.4584 248.529 107.566C253.92 123.674 250.427 128.963 222.726 137.39C195.025 145.818 208.314 162.044 211.69 171.533C215.067 181.022 221.753 189.038 201.559 198.467C181.366 207.896 188.383 213.738 188.383 213.738C188.383 213.738 225.623 251.083 223.566 239.127C221.509 227.17 225.236 209.117 258.625 207.744C273.006 207.153 295.029 200.428 299.905 185.331C301.041 181.815 301.831 176.446 300.968 172.807C299.769 167.76 296.39 163.783 294.514 159.032C290.142 147.961 301.109 139.854 307.42 132.454C310.715 128.591 314.008 124.629 316.531 120.225C321.77 111.08 319.808 101.272 314.104 92.8427C311.368 88.8009 307.567 84.5121 306.373 79.6902C305.091 74.5112 306.209 67.4349 306.513 62.107C306.752 57.9281 307.158 53.7658 306.918 49.5763C306.474 41.786 304.613 32.2662 298.144 27.0187Z" fill="url(#paint0_linear_113_111)"/>
<g opacity="0.8">
<g opacity="0.8">
<path opacity="0.8" d="M185.455 234.698C185.214 234.784 184.94 234.683 184.818 234.455C184.686 234.205 184.783 233.897 185.038 233.767C185.195 233.687 200.872 225.602 218.361 212.286C234.477 200.017 255.471 180.671 263.971 158.181C271.07 139.398 277.544 108.345 281.734 72.9876C285.492 41.2814 286.085 17.8324 284.488 13.4798C284.391 13.215 284.532 12.923 284.802 12.8272C285.072 12.7315 285.37 12.8698 285.468 13.1346C287.335 18.2273 286.15 44.5689 282.769 73.1058C278.57 108.542 272.075 139.679 264.947 158.535C256.36 181.256 235.214 200.751 218.986 213.103C201.425 226.471 185.678 234.59 185.521 234.67C185.499 234.681 185.477 234.69 185.455 234.698Z" fill="white"/>
</g>
<g opacity="0.8">
<path opacity="0.8" d="M281.678 79.1337C281.409 79.2282 281.135 79.1549 281.036 78.8913C280.906 78.5426 267.794 43.9591 250.886 36.151C250.626 36.0316 250.521 35.7432 250.643 35.4879C250.766 35.2325 251.078 35.132 251.337 35.2514C268.632 43.238 281.471 77.0956 282.01 78.5367C282.109 78.8015 281.95 79.0379 281.68 79.1325C281.679 79.1337 281.678 79.1337 281.678 79.1337Z" fill="white"/>
</g>
<g opacity="0.8">
<path opacity="0.8" d="M275.283 119.24C275.083 119.311 274.849 119.255 274.705 119.084C274.523 118.866 274.555 118.545 274.776 118.366C274.873 118.288 284.526 110.525 296.437 104.01C312.531 95.208 324.865 92.7503 333.096 96.7069C333.354 96.831 333.46 97.136 333.334 97.389C333.207 97.642 332.896 97.746 332.638 97.6219C313.7 88.5194 275.817 118.845 275.437 119.152C275.39 119.191 275.337 119.221 275.283 119.24Z" fill="white"/>
</g>
<g opacity="0.8">
<path opacity="0.8" d="M233.255 201.218C233.201 201.237 233.146 201.246 233.087 201.248C232.8 201.252 232.564 201.028 232.559 200.745C232.556 200.597 232.289 185.759 229.121 170.124C226.216 155.79 220.219 137.834 208.141 133.697C207.87 133.603 207.727 133.312 207.822 133.048C207.916 132.782 208.214 132.641 208.484 132.734C218.555 136.184 225.841 148.701 230.144 169.94C233.328 185.663 233.596 200.581 233.598 200.73C233.603 200.954 233.458 201.146 233.255 201.218Z" fill="white"/>
</g>
<g opacity="0.8">
<path opacity="0.8" d="M254.746 177.245C254.535 177.32 254.291 177.253 254.151 177.068C253.98 176.841 254.03 176.522 254.26 176.355C255.935 175.141 295.441 146.667 310.848 149.386C311.131 149.435 311.318 149.701 311.268 149.978C311.217 150.256 310.947 150.44 310.663 150.389C295.693 147.747 255.285 176.88 254.878 177.174C254.837 177.206 254.792 177.229 254.746 177.245Z" fill="white"/>
</g>
</g>
<path d="M329.013 133.179C326.455 128.942 321.521 125.387 316.972 123.416C284.717 109.449 255.011 175.571 254.523 192.517C254.036 209.463 248.924 213.281 219.95 212.022C190.974 210.763 197.879 230.441 197.781 240.49C197.683 250.54 201.208 260.301 178.951 262.475C156.695 264.649 161.282 272.473 161.282 272.473C161.282 272.473 183.436 319.969 185.627 308.035C187.817 296.102 197.556 280.35 229.448 290.135C243.184 294.35 266.229 295.327 276.029 282.739C278.311 279.807 280.907 275.017 281.35 271.306C281.964 266.159 280.157 261.296 280.031 256.203C279.737 244.335 292.856 240.344 301.348 235.475C305.782 232.933 310.248 230.297 314.143 226.989C322.229 220.122 323.769 210.243 321.31 200.418C320.131 195.707 318.034 190.41 318.575 185.477C319.157 180.179 322.651 173.89 324.776 168.977C326.442 165.124 328.262 161.341 329.482 157.32C331.755 149.838 333.29 140.263 329.013 133.179Z" fill="url(#paint1_linear_113_111)"/>
<g opacity="0.8">
<g opacity="0.8">
<path opacity="0.8" d="M151.291 291.224C151.036 291.224 150.812 291.038 150.776 290.783C150.738 290.504 150.937 290.246 151.221 290.208C151.396 290.185 168.939 287.778 189.992 281.049C209.391 274.85 235.825 263.609 251.586 245.266C264.749 229.945 281.559 202.873 297.705 170.991C312.183 142.402 320.835 120.532 320.835 115.907C320.835 115.625 321.067 115.397 321.354 115.397C321.641 115.397 321.874 115.625 321.874 115.907C321.874 121.318 311.667 145.713 298.636 171.445C282.454 203.397 265.595 230.543 252.38 245.923C236.458 264.454 209.83 275.784 190.296 282.024C169.157 288.778 151.537 291.194 151.361 291.218C151.339 291.223 151.315 291.224 151.291 291.224Z" fill="white"/>
</g>
<g opacity="0.8">
<path opacity="0.8" d="M295.531 176.861C295.246 176.861 295.013 176.649 295.012 176.369C295.009 175.997 294.608 139.078 281.392 126.122C281.188 125.923 281.188 125.603 281.392 125.404C281.595 125.205 281.924 125.207 282.128 125.405C295.646 138.658 296.041 174.827 296.052 176.361C296.055 176.643 295.823 176.861 295.535 176.861C295.533 176.861 295.531 176.861 295.531 176.861Z" fill="white"/>
</g>
<g opacity="0.8">
<path opacity="0.8" d="M275.672 212.376C275.458 212.376 275.258 212.246 275.182 212.038C275.086 211.774 275.226 211.482 275.497 211.386C275.614 211.344 287.378 207.241 300.835 205.063C319.018 202.118 331.472 203.898 337.853 210.351C338.054 210.554 338.048 210.876 337.841 211.073C337.635 211.269 337.306 211.263 337.106 211.061C322.426 196.213 276.312 212.183 275.848 212.346C275.789 212.367 275.73 212.376 275.672 212.376Z" fill="white"/>
</g>
<g opacity="0.8">
<path opacity="0.8" d="M207.828 275.576C207.772 275.576 207.716 275.567 207.659 275.549C207.388 275.458 207.242 275.168 207.336 274.901C207.384 274.761 212.254 260.71 214.669 244.946C216.883 230.493 217.437 211.607 207.5 203.707C207.277 203.53 207.243 203.208 207.424 202.989C207.605 202.771 207.933 202.736 208.156 202.915C216.442 209.502 218.979 223.699 215.696 245.11C213.266 260.963 208.369 275.089 208.32 275.231C208.246 275.443 208.044 275.576 207.828 275.576Z" fill="white"/>
</g>
<g opacity="0.8">
<path opacity="0.8" d="M236.324 260.147C236.1 260.147 235.894 260.004 235.826 259.784C235.743 259.514 235.9 259.229 236.174 259.149C238.169 258.563 285.173 244.874 298.732 252.543C298.981 252.684 299.067 252.996 298.923 253.24C298.78 253.483 298.461 253.567 298.213 253.426C285.037 245.974 236.957 259.984 236.474 260.126C236.424 260.14 236.373 260.147 236.324 260.147Z" fill="white"/>
</g>
</g>
<path d="M220.891 14.0625L220.519 16.6703C219.286 16.7258 218.073 16.8819 216.892 17.142L215.887 14.7091C215.613 14.0459 214.838 13.7303 214.156 14.0057L209.891 15.7281C209.209 16.0036 208.876 16.7672 209.149 17.4316L210.159 19.8952C209.126 20.5406 208.149 21.2712 207.24 22.0798L205.098 20.4508C204.52 20.011 203.68 20.1198 203.223 20.6943L200.358 24.288C199.899 24.8637 199.997 25.6888 200.575 26.1298L202.725 27.7682C202.153 28.8227 201.671 29.9363 201.283 31.0983L198.554 30.7472C197.821 30.6526 197.139 31.1621 197.03 31.8856L196.344 36.4179C196.234 37.1438 196.741 37.8105 197.475 37.9051L200.212 38.2573C200.245 39.4809 200.381 40.6843 200.624 41.8558L198.055 42.9055C197.363 43.1881 197.023 43.9694 197.296 44.6492L199.007 48.912C199.28 49.5953 200.065 49.918 200.76 49.6331L203.329 48.5786C203.976 49.6094 204.712 50.5812 205.53 51.4843L203.818 53.6642C203.355 54.2541 203.454 55.0981 204.04 55.5497L207.71 58.3726C208.297 58.8242 209.15 58.7107 209.612 58.1185L211.303 55.9528C212.384 56.5167 213.527 56.986 214.719 57.3607L214.335 60.0631C214.23 60.8031 214.745 61.4805 215.485 61.5751L220.119 62.1709C220.86 62.2666 221.544 61.7429 221.648 61.0029L222.022 58.3206C223.282 58.2674 224.52 58.1078 225.725 57.8419L226.741 60.3196C227.023 61.0076 227.813 61.3327 228.505 61.0455L232.827 59.2498C233.518 58.9625 233.847 58.174 233.564 57.4884L232.547 55.0284C233.602 54.3605 234.596 53.6027 235.517 52.7646L237.63 54.3746C238.22 54.825 239.067 54.7116 239.52 54.1217L242.35 50.4429C242.802 49.8553 242.69 49.0172 242.101 48.5692L240.007 46.978C240.578 45.894 241.052 44.7485 241.428 43.5557L244.044 43.8926C244.779 43.9872 245.452 43.473 245.547 42.7448L246.141 38.2006C246.237 37.476 245.719 36.8116 244.986 36.717L242.377 36.3813C242.323 35.1424 242.163 33.9272 241.896 32.7462L244.316 31.7532C244.996 31.4742 245.318 30.7035 245.036 30.032L243.268 25.8425C242.986 25.1734 242.207 24.8566 241.527 25.1344L239.092 26.1298C238.429 25.1096 237.679 24.1473 236.846 23.2572L238.454 21.1991C238.902 20.6257 238.792 19.8065 238.211 19.3679L234.575 16.6289C233.994 16.1915 233.161 16.2991 232.712 16.8701L231.094 18.9305C230.021 18.3844 228.887 17.9304 227.705 17.5711L228.065 14.9834C228.164 14.2717 227.656 13.618 226.929 13.5246L222.387 12.9406C221.664 12.8496 220.992 13.3497 220.891 14.0625ZM204.876 35.1861C206.19 26.2303 214.573 19.9519 223.611 21.1139C232.648 22.276 238.996 30.4493 237.781 39.417C236.56 48.4403 228.158 54.8416 219.022 53.6677C209.885 52.4927 203.556 44.1964 204.876 35.1861Z" fill="#D8DEE8"/>
<path d="M151.241 12.6484L150.667 16.6807C148.761 16.7658 146.885 17.007 145.059 17.4089L143.505 13.6474C143.08 12.6213 141.883 12.1342 140.83 12.5598L134.236 15.2232C133.181 15.6499 132.666 16.8285 133.088 17.8581L134.651 21.667C133.053 22.6647 131.542 23.7937 130.137 25.0456L126.821 22.5264C125.928 21.8467 124.629 22.0157 123.923 22.9023L119.493 28.4584C118.782 29.3485 118.933 30.6241 119.828 31.3062L123.152 33.8407C122.267 35.4709 121.522 37.1932 120.922 38.9889L116.702 38.4463C115.57 38.3009 114.515 39.0882 114.345 40.2065L113.285 47.2154C113.115 48.3384 113.899 49.3681 115.035 49.5135L119.266 50.0573C119.317 51.9487 119.526 53.8106 119.903 55.6216L115.932 57.2447C114.861 57.6821 114.335 58.889 114.757 59.9412L117.403 66.5316C117.826 67.5872 119.04 68.0873 120.114 67.6463L124.087 66.0162C125.085 67.6097 126.225 69.1122 127.49 70.5083L124.843 73.8786C124.127 74.7912 124.28 76.0963 125.186 76.7937L130.862 81.1582C131.77 81.8569 133.088 81.6807 133.803 80.7657L136.418 77.4179C138.088 78.2903 139.857 79.0162 141.701 79.5954L141.105 83.7743C140.943 84.9186 141.738 85.966 142.885 86.1126L150.05 87.0334C151.195 87.1812 152.254 86.3714 152.413 85.2271L152.992 81.0802C154.941 80.9986 156.855 80.7515 158.717 80.3402L160.288 84.1715C160.725 85.2354 161.946 85.7378 163.016 85.2933L169.698 82.5177C170.766 82.0744 171.276 80.8544 170.837 79.7928L169.264 75.9887C170.896 74.9567 172.432 73.784 173.857 72.4884L177.123 74.978C178.035 75.6743 179.344 75.4981 180.045 74.5879L184.421 68.9006C185.119 67.9927 184.947 66.6959 184.035 66.0032L180.799 63.5443C181.682 61.8669 182.414 60.096 182.995 58.2531L187.041 58.7732C188.177 58.9198 189.218 58.1242 189.365 56.9988L190.284 49.9722C190.431 48.8503 189.63 47.8242 188.498 47.6788L184.463 47.1599C184.38 45.2448 184.134 43.3652 183.719 41.54L187.462 40.0044C188.515 39.5729 189.013 38.3813 188.574 37.3434L185.84 30.8652C185.404 29.8309 184.199 29.3415 183.149 29.7706L179.386 31.3085C178.361 29.7304 177.2 28.2432 175.913 26.8684L178.399 23.6861C179.092 22.8007 178.923 21.5334 178.022 20.8549L172.401 16.6204C171.502 15.9443 170.213 16.1109 169.52 16.994L167.017 20.1799C165.356 19.3358 163.604 18.6336 161.776 18.0768L162.335 14.0753C162.488 12.9747 161.702 11.9652 160.579 11.821L153.555 10.9178C152.435 10.7736 151.398 11.5479 151.241 12.6484ZM126.48 45.3098C128.51 31.4622 141.473 21.7545 155.446 23.5513C169.419 25.3482 179.233 37.9853 177.356 51.8518C175.468 65.8022 162.478 75.7015 148.352 73.8845C134.225 72.0687 124.438 59.2401 126.48 45.3098Z" fill="#D8DEE8"/>
<path d="M144.521 51.6945L113.802 302.017C113.342 305.771 115.98 309.135 119.677 309.495L247.626 323.266C255.464 323.744 259.756 319.818 260.24 315.827L292.492 49.692C292.973 45.7235 289.128 42.1287 281.256 42.1287L152.143 44.7944C148.404 44.857 144.979 47.9613 144.521 51.6945Z" fill="url(#paint2_linear_113_111)"/>
<path d="M138.762 51.2647L107.875 302.84C107.412 306.612 110.06 309.994 113.769 310.356L246.416 323.304C250.575 323.709 254.386 320.76 254.872 316.749L287.305 49.2385C287.788 45.2488 284.734 42.0428 280.529 42.1126L146.411 44.3314C142.661 44.3917 139.223 47.5126 138.762 51.2647Z" fill="url(#paint3_linear_113_111)"/>
<path d="M141.28 65.1404L112.651 298.4C112.218 301.924 114.698 305.078 118.17 305.409L242.92 317.298C246.786 317.667 250.329 314.914 250.782 311.179L280.755 64.0623C281.205 60.348 278.369 57.3419 274.464 57.3832L148.433 58.699C144.925 58.7344 141.71 61.6342 141.28 65.1404Z" fill="#D8DEE8"/>
<path d="M208.178 51.0906C208.014 52.4299 208.994 53.5021 210.369 53.4844C211.744 53.4678 212.994 52.3661 213.158 51.0244C213.322 49.6826 212.338 48.6104 210.962 48.6305C209.586 48.6506 208.34 49.7524 208.178 51.0906Z" fill="url(#paint4_linear_113_111)"/>
<path d="M162.848 221.72C188.387 175.428 226.539 161.571 238.026 113.862C244.234 88.0739 240.004 63.3908 232.879 42.8996L280.531 42.1111C284.736 42.0414 287.79 45.2485 287.307 49.237L254.874 316.747C254.388 320.759 250.577 323.709 246.418 323.302L142.144 313.124C141.371 271.645 151.463 242.354 162.848 221.72Z" fill="white"/>
<path d="M12.826 77.8119C12.826 53.214 34.7125 33.2772 60.9772 33.2795C86.4653 33.2819 106.58 52.1701 106.58 75.4666C106.58 98.763 86.4653 118.657 60.9772 119.935C34.7113 121.252 12.826 102.41 12.826 77.8119Z" fill="url(#paint5_linear_113_111)"/>
<path d="M15.6573 75.8505C15.6573 51.2526 36.9107 31.3158 62.4146 31.3181C87.1648 31.3205 106.699 50.2087 106.699 73.5052C106.699 96.8016 87.1648 116.696 62.4146 117.974C36.9095 119.291 15.6573 100.447 15.6573 75.8505Z" fill="url(#paint6_linear_113_111)"/>
<g opacity="0.5">
<path opacity="0.5" d="M22.9332 75.6626C22.9332 54.9964 40.7886 38.2455 62.2168 38.249C83.0108 38.2514 99.423 54.1204 99.423 73.6931C99.423 93.2658 83.012 109.98 62.2168 111.053C40.7886 112.16 22.9332 96.3288 22.9332 75.6626Z" fill="white"/>
</g>
<path opacity="0.5" d="M60.7422 41.4243C81.5362 41.4266 97.9483 57.2957 97.9483 76.8684C97.9483 81.5225 97.0114 86.011 95.3173 90.1698C97.9411 85.1623 99.4242 79.5577 99.4242 73.6931C99.4242 54.1204 83.0133 38.2514 62.2181 38.249C45.6915 38.2478 31.2991 48.2156 25.5751 62.2547C32.0563 49.912 45.4913 41.4231 60.7422 41.4243Z" fill="white"/>
<path d="M44.45 70.6044V88.6415C44.45 93.8559 48.9247 97.9697 54.428 97.8291L68.074 97.4803C73.511 97.3408 77.9049 93.0461 77.9049 87.8861V70.0393L44.45 70.6044ZM57.0168 89.2515L59.5526 81.7177C58.4662 81.168 57.7307 80.0851 57.7307 78.8238C57.7307 76.9726 59.3151 75.4417 61.2661 75.4062C63.2146 75.3696 64.793 76.8378 64.793 78.6855C64.793 79.9445 64.0599 81.0545 62.9771 81.6479L65.5032 89.0576L57.0168 89.2515Z" fill="white"/>
<path d="M74.0258 68.4753C72.5776 68.4989 71.4032 67.4007 71.4032 66.0212C71.4032 60.7193 66.8634 56.4636 61.2648 56.5345C55.647 56.6054 51.0614 61.0042 51.0614 66.3392C51.0614 67.727 49.8713 68.8713 48.4014 68.8962C46.9303 68.9198 45.7366 67.8133 45.7366 66.4231C45.7366 58.303 52.7218 51.6192 61.266 51.5258C69.7645 51.4324 76.6436 57.8987 76.6436 65.9408C76.6436 67.3168 75.4728 68.4517 74.0258 68.4753Z" fill="white"/>
<path d="M105.632 171.353C105.632 171.353 104.704 167.942 105.362 167.069C106.019 166.197 110.04 162.71 109.655 163.847C109.268 164.984 108.688 165.742 108.688 165.742C108.688 165.742 110.853 166.728 109.46 168.205C108.069 169.684 107.604 170.025 107.526 171.352C107.45 172.68 106.561 173.135 105.632 171.353Z" fill="url(#paint7_linear_113_111)"/>
<path d="M67.0043 318.621C67.0043 318.621 66.5123 321.571 66.575 322.621C66.6377 323.671 78.5244 324.208 78.6438 323.421C78.7632 322.635 76.6796 321.383 75.2121 320.942C73.7447 320.5 69.4496 319.323 69.4496 319.323L67.0043 318.621Z" fill="url(#paint8_linear_113_111)"/>
<path d="M69.8892 315.68L69.5105 319.349C69.5105 319.349 68.1299 320.244 66.9133 319.553L66.3043 315.56L69.8892 315.68Z" fill="url(#paint9_linear_113_111)"/>
<path d="M45.7957 323.404C45.7957 323.404 45.3037 326.354 45.3664 327.404C45.4291 328.454 57.3159 328.991 57.4353 328.204C57.5558 327.418 55.471 326.166 54.0036 325.726C52.5361 325.285 48.241 324.106 48.241 324.106L45.7957 323.404Z" fill="url(#paint10_linear_113_111)"/>
<path d="M48.6816 320.462L48.303 324.132C48.303 324.132 46.9223 325.027 45.7057 324.336L45.0967 320.343L48.6816 320.462Z" fill="url(#paint11_linear_113_111)"/>
<path d="M67.7328 219.895C69.1062 222.626 70.4808 225.357 71.8542 228.088C72.9588 243.672 73.5086 260.619 73.1553 278.742C72.8924 292.226 72.1581 304.999 71.1018 316.988C69.2389 316.904 67.3759 316.82 65.513 316.736C62.8192 311.495 59.6395 303.554 59.3465 293.752C59.0414 283.528 62.203 282.169 62.0029 272.38C61.7424 259.691 56.3151 256.305 53.4236 241.043C52.3179 235.205 51.5739 227.582 52.4578 218.333C57.5499 218.854 62.6407 219.375 67.7328 219.895Z" fill="url(#paint12_linear_113_111)"/>
<path opacity="0.3" d="M52.4588 218.333C55.208 218.614 57.9573 218.895 60.7077 219.177C65.6575 227.621 67.0393 236.409 66.1699 240.297C64.9412 245.797 61.6904 247.559 61.8701 253.08C62.0473 258.544 65.3307 259.962 67.4131 266.401C68.8553 270.86 68.4742 274.959 67.6543 282.977C66.0023 299.126 62.0244 304.065 65.356 309.36C66.3026 310.865 68.0088 312.656 71.3512 314.023C71.2693 315.014 71.1885 316.007 71.1029 316.987C69.2399 316.904 67.3769 316.819 65.514 316.736C62.8202 311.495 59.6405 303.554 59.3475 293.752C59.0425 283.528 62.2041 282.169 62.0039 272.38C61.7435 259.691 56.3162 256.306 53.4247 241.044C52.3189 235.206 51.5738 227.583 52.4588 218.333Z" fill="url(#paint13_linear_113_111)"/>
<path d="M60.3397 224.812C57.7605 238.6 55.4828 253.357 53.7054 269.007C51.5591 287.904 50.4136 305.719 49.9638 322.258C47.9188 322.315 45.875 322.372 43.8299 322.428C35.7728 306.802 35.2808 296.207 36.442 289.309C36.8894 286.652 38.106 281.44 38.3833 273.65C38.5763 268.22 38.223 264.087 37.7816 259.12C36.8146 248.229 35.6401 245.852 35.4713 237.521C35.3122 229.702 35.2796 225.747 37.5562 223.438C43.5538 217.354 59.1568 224.273 60.3397 224.812Z" fill="url(#paint14_linear_113_111)"/>
<path d="M104.563 170.827C105.923 170.734 107.282 170.642 108.642 170.548C111.849 183.257 109.549 195.585 102.309 200.118C90.9976 207.202 69.9745 193.856 65.419 179.324C63.4198 172.946 63.8744 163.741 67.8716 161.953C68.9809 161.456 70.7028 161.38 74.4324 163.432C85.5703 169.562 85.8633 181.15 91.5257 182.131C94.041 182.568 98.107 180.995 104.563 170.827Z" fill="url(#paint15_linear_113_111)"/>
<path d="M73.4193 230.883C75.3788 227.696 72.9177 224.623 72.3582 218.586C71.724 211.742 74.4129 210.603 77.0717 199.262C78.8406 191.72 80.5372 184.48 78.5114 176.004C77.5408 171.942 75.8936 165.052 70.0769 161.725C67.0756 160.007 62.9771 160.18 54.9043 160.593C44.9203 161.105 39.9295 161.361 36.206 163.283C35.661 163.564 24.3361 169.604 23.556 179.448C22.7626 189.468 33.8921 190.815 35.3764 204.176C36.0432 210.175 34.8555 219.4 34.085 225.383C33.3459 231.128 32.8358 232.599 33.9934 234.339C36.7812 238.532 45.3146 237.337 62.3815 234.948C69.0761 234.009 71.9567 233.262 73.4193 230.883Z" fill="url(#paint16_linear_113_111)"/>
<path d="M47.4507 202.026C46.7284 204.631 44.1335 206.575 42.3273 212.91C41.9378 214.278 39.1584 224.018 42.7626 226.415C44.8438 227.799 46.7127 225.176 51.765 224.833C60.5191 224.24 64.69 231.453 70.4091 229.483C71.4015 229.14 72.7109 228.412 74.0192 226.738C74.2797 228.246 74.2351 229.557 73.42 230.885C71.9585 233.263 69.0767 234.01 62.3821 234.948C45.3152 237.337 36.7818 238.532 33.994 234.339C32.8376 232.6 33.3465 231.128 34.0856 225.383C34.8561 219.399 36.0438 210.174 35.377 204.177C33.8927 190.815 22.762 189.468 23.5566 179.449C23.7688 176.77 24.7733 174.385 26.1177 172.308C40.2364 177.909 49.7188 193.842 47.4507 202.026Z" fill="url(#paint17_linear_113_111)"/>
<path d="M29.6189 221.735L32.4441 223.503C32.9517 222.929 34.1262 221.77 35.959 221.375C38.0245 220.93 40.3963 221.569 40.4506 222.215C40.4952 222.732 39.0506 223.255 38.8276 223.335C37.0249 223.988 35.6877 223.445 34.9594 224.156C34.7013 224.406 34.3806 224.874 33.6414 225.307C33.4473 225.421 33.2447 225.521 33.1374 225.563C31.934 226.021 29.8709 223.968 29.6937 223.788L29.6189 221.735Z" fill="url(#paint18_linear_113_111)"/>
<path d="M37.9641 185.412C40.0079 180.614 41.4235 173.267 38.1956 162.357C16.9277 170.573 6.08155 190.05 10.3163 205.489C13.8071 218.217 26.509 224.416 29.3426 225.721C30.0022 224.249 30.6617 222.778 31.3201 221.308C28.0367 217.724 24.3361 212.423 24.8594 206.374C25.5853 197.988 33.827 195.126 37.9641 185.412Z" fill="url(#paint19_linear_113_111)"/>
<path d="M54.3807 150.722C54.3807 150.722 54.2131 154.369 53.0579 157.101C52.0137 159.57 46.5249 161.122 45.4119 161.673C44.299 162.223 47.4968 163.835 50.7078 164.15C53.9188 164.467 63.0877 163.752 64.7409 162.559C66.394 161.366 63.4121 161.456 61.1211 160.631C58.8289 159.806 57.5037 155.412 57.9088 153.418C58.314 151.422 54.3807 150.722 54.3807 150.722Z" fill="url(#paint20_linear_113_111)"/>
<path d="M59.4594 149.4C61.1258 147.794 61.3585 147.607 61.5394 147.053C62.2677 144.827 60.506 141.777 58.1957 141.027C58.0751 140.988 56.5257 140.502 55.9349 141.16C55.432 141.719 56.1712 142.492 55.8203 143.572C55.4911 144.581 54.5988 144.657 52.9433 145.981C51.5795 147.071 50.733 147.749 50.5377 148.703C50.135 150.669 52.5622 153.518 54.711 153.441C55.4839 153.413 55.6949 153.026 59.4594 149.4Z" fill="url(#paint21_linear_113_111)"/>
<path d="M54.9224 153.745C54.9224 153.745 56.6937 155.711 59.3911 155.061C61.8063 154.479 61.1901 149.044 59.4224 148.176C58.8328 147.886 57.7608 147.91 56.9554 148.291C56.4791 148.515 56.3464 148.749 55.5615 149.102C54.838 149.427 54.6077 149.382 54.4135 149.611C54.17 149.897 54.0651 150.514 54.8283 152.001C54.2785 151.62 53.6865 151.539 53.3235 151.792C53.2656 151.832 53.1185 151.974 53.0546 152.16C52.8243 152.833 53.5381 153.517 54.9224 153.745Z" fill="url(#paint22_linear_113_111)"/>
<path d="M256.925 80.151L257.548 83.4504L244.715 83.4799L133.347 83.7388C130.482 83.7459 127.848 86.0676 127.455 88.9249L100.869 263.117C100.474 266 105.051 270.401 107.899 270.616L157.307 274.339V274.28L231.212 279.838C231.214 279.838 231.215 279.838 231.216 279.838L231.394 279.911C234.55 280.15 237.445 277.905 237.855 274.86C237.855 274.859 237.855 274.873 237.856 274.872L262.754 88.8917C263.159 85.8749 260.098 80.1427 256.925 80.151Z" fill="url(#paint23_linear_113_111)"/>
<path d="M235.337 271.236C234.93 274.283 232.036 276.559 228.88 276.322L105.257 267.016C102.41 266.802 100.429 264.291 100.825 261.408L124.992 85.3637C125.384 82.5064 128.019 80.1847 130.881 80.1764L255.203 79.8407C258.375 79.8324 260.625 82.2712 260.223 85.288L235.337 271.236Z" fill="url(#paint24_linear_113_111)"/>
<path d="M236.98 174.422C236.777 175.93 235.34 177.056 233.77 176.999L124.967 173.106C123.531 173.055 122.52 171.895 122.718 170.454L124.857 154.91C125.055 153.471 126.366 152.497 127.803 152.536L236.701 155.5C238.273 155.543 239.386 156.632 239.185 158.139L236.98 174.422Z" fill="white"/>
<path d="M232.767 206.005C232.564 207.517 231.125 208.807 229.555 208.73L120.835 203.465C119.4 203.395 118.401 202.048 118.599 200.606L120.755 184.762C120.953 183.321 122.276 182.086 123.712 182.142L232.499 186.444C234.069 186.507 235.179 187.899 234.977 189.409L232.767 206.005Z" fill="white"/>
<path opacity="0.1" d="M239.194 158.076C238.936 157.995 238.658 157.95 238.363 157.942L129.463 154.978C128.026 154.938 126.715 155.914 126.519 157.351L124.376 172.895C124.372 172.935 124.368 172.973 124.364 173.013C123.26 172.708 122.55 171.682 122.716 170.452L124.859 154.908C125.054 153.472 126.366 152.494 127.802 152.536L236.703 155.499C238.247 155.544 239.355 156.599 239.194 158.076Z" fill="url(#paint25_linear_113_111)"/>
<path opacity="0.1" d="M235 189.059C234.738 188.957 234.456 188.896 234.157 188.884L125.373 184.581C123.936 184.524 122.611 185.762 122.416 187.203L120.256 203.048C120.244 203.15 120.236 203.248 120.236 203.35C119.131 203 118.43 201.835 118.596 200.606L120.756 184.761C120.951 183.32 122.275 182.082 123.712 182.139L232.497 186.442C233.95 186.503 235.004 187.691 235 189.059Z" fill="url(#paint26_linear_113_111)"/>
<path d="M203.852 231.605C204.172 229.22 202.453 227.024 200.009 226.885L143.728 223.717C141.397 223.586 139.245 225.511 138.928 227.832L136.606 244.995C136.288 247.32 137.905 249.545 140.235 249.701L196.487 253.474C198.93 253.638 201.18 251.616 201.502 249.228L203.852 231.605Z" fill="url(#paint27_linear_113_111)"/>
<path d="M208.102 115.976C207.361 121.462 204.486 126.414 200.398 130.056C195.994 133.984 190.191 136.375 184.158 136.26C178.154 136.146 173.1 133.575 169.856 129.56C166.863 125.858 165.396 120.926 166.131 115.532C167.659 104.31 178.176 95.2385 189.716 95.2657C201.367 95.2905 209.643 104.562 208.102 115.976Z" fill="url(#paint28_linear_113_111)"/>
<path d="M196.88 109.74C196.214 114.655 191.586 118.594 186.562 118.535C181.558 118.476 178.054 114.472 178.716 109.592C179.379 104.713 183.96 100.778 188.966 100.801C193.994 100.823 197.545 104.825 196.88 109.74Z" fill="white"/>
<path d="M200.399 130.056C195.995 133.985 190.192 136.375 184.158 136.26C178.155 136.147 173.101 133.576 169.856 129.56C173.57 124.487 179.696 121.113 186.201 121.196C192.741 121.279 198.013 124.832 200.399 130.056Z" fill="white"/>
<path opacity="0.4" d="M260.221 85.2872L235.337 271.235C234.93 274.281 231.851 276.544 228.697 276.307L154.448 270.718C150.921 267.177 148.016 262.929 145.943 257.83C144.925 255.33 144.18 252.632 143.685 249.795C142.306 241.943 142.841 233.018 144.851 224.257C146.396 217.513 148.82 210.855 151.923 204.848C154.404 200.045 157.322 195.653 160.581 191.962C162.928 189.306 165.466 186.725 168.143 184.194C171.371 181.14 174.801 178.158 178.34 175.204C186.587 168.316 195.417 161.581 203.592 154.47C222.456 138.064 237.76 119.732 234.077 93.5763C233.959 92.7524 232.81 86.4433 231.341 79.9037L255.018 79.8399C258.19 79.8316 260.625 82.2715 260.221 85.2872Z" fill="white"/>
<defs>
<linearGradient id="paint0_linear_113_111" x1="226.088" y1="238.747" x2="311.135" y2="4.45752" gradientUnits="userSpaceOnUse">
<stop offset="0.00359712" stop-color="#E38DDD"/>
<stop offset="1" stop-color="#9571F6"/>
</linearGradient>
<linearGradient id="paint1_linear_113_111" x1="160.891" y1="215.726" x2="331.72" y2="215.726" gradientUnits="userSpaceOnUse">
<stop stop-color="#FF9085"/>
<stop offset="1" stop-color="#FB6FBB"/>
</linearGradient>
<linearGradient id="paint2_linear_113_111" x1="204.73" y1="176.244" x2="255.13" y2="181.852" gradientUnits="userSpaceOnUse">
<stop stop-color="#444B8C"/>
<stop offset="0.9964" stop-color="#26264F"/>
</linearGradient>
<linearGradient id="paint3_linear_113_111" x1="160.302" y1="51.6338" x2="280.512" y2="469.071" gradientUnits="userSpaceOnUse">
<stop stop-color="#444B8C"/>
<stop offset="0.9964" stop-color="#26264F"/>
</linearGradient>
<linearGradient id="paint4_linear_113_111" x1="207.024" y1="41.3834" x2="348.527" y2="432.292" gradientUnits="userSpaceOnUse">
<stop stop-color="#FFC444"/>
<stop offset="0.9964" stop-color="#F36F56"/>
</linearGradient>
<linearGradient id="paint5_linear_113_111" x1="-1073.23" y1="1123.97" x2="-974.872" y2="1029.36" gradientUnits="userSpaceOnUse">
<stop stop-color="#311944"/>
<stop offset="1" stop-color="#893976"/>
</linearGradient>
<linearGradient id="paint6_linear_113_111" x1="30.7146" y1="101.75" x2="109.594" y2="28.7364" gradientUnits="userSpaceOnUse">
<stop stop-color="#FF9085"/>
<stop offset="1" stop-color="#FB6FBB"/>
</linearGradient>
<linearGradient id="paint7_linear_113_111" x1="112.093" y1="163.885" x2="96.4969" y2="180.077" gradientUnits="userSpaceOnUse">
<stop stop-color="#FFC444"/>
<stop offset="0.9964" stop-color="#F36F56"/>
</linearGradient>
<linearGradient id="paint8_linear_113_111" x1="72.6399" y1="314.754" x2="72.7688" y2="279.518" gradientUnits="userSpaceOnUse">
<stop stop-color="#AA80F9"/>
<stop offset="0.9964" stop-color="#6165D7"/>
</linearGradient>
<linearGradient id="paint9_linear_113_111" x1="69.08" y1="326.076" x2="67.4346" y2="307.863" gradientUnits="userSpaceOnUse">
<stop stop-color="#FFC444"/>
<stop offset="0.9964" stop-color="#F36F56"/>
</linearGradient>
<linearGradient id="paint10_linear_113_111" x1="51.4507" y1="314.676" x2="51.5796" y2="279.44" gradientUnits="userSpaceOnUse">
<stop stop-color="#AA80F9"/>
<stop offset="0.9964" stop-color="#6165D7"/>
</linearGradient>
<linearGradient id="paint11_linear_113_111" x1="47.6049" y1="328.016" x2="45.9595" y2="309.803" gradientUnits="userSpaceOnUse">
<stop stop-color="#FFC444"/>
<stop offset="0.9964" stop-color="#F36F56"/>
</linearGradient>
<linearGradient id="paint12_linear_113_111" x1="68.4301" y1="234.334" x2="55.75" y2="300.458" gradientUnits="userSpaceOnUse">
<stop stop-color="#311944"/>
<stop offset="1" stop-color="#893976"/>
</linearGradient>
<linearGradient id="paint13_linear_113_111" x1="75.0043" y1="266.622" x2="55.2173" y2="268.239" gradientUnits="userSpaceOnUse">
<stop stop-color="#311944"/>
<stop offset="1" stop-color="#893976"/>
</linearGradient>
<linearGradient id="paint14_linear_113_111" x1="64.0569" y1="270.271" x2="34.0184" y2="272.727" gradientUnits="userSpaceOnUse">
<stop stop-color="#311944"/>
<stop offset="1" stop-color="#893976"/>
</linearGradient>
<linearGradient id="paint15_linear_113_111" x1="87.79" y1="173.047" x2="66.4045" y2="313.138" gradientUnits="userSpaceOnUse">
<stop stop-color="#AA80F9"/>
<stop offset="0.9964" stop-color="#6165D7"/>
</linearGradient>
<linearGradient id="paint16_linear_113_111" x1="40.5114" y1="326.676" x2="30.1753" y2="467.962" gradientUnits="userSpaceOnUse">
<stop stop-color="#AA80F9"/>
<stop offset="0.9964" stop-color="#6165D7"/>
</linearGradient>
<linearGradient id="paint17_linear_113_111" x1="3.95719" y1="278.513" x2="61.5603" y2="177.869" gradientUnits="userSpaceOnUse">
<stop stop-color="#AA80F9"/>
<stop offset="0.9964" stop-color="#6165D7"/>
</linearGradient>
<linearGradient id="paint18_linear_113_111" x1="24.993" y1="209.613" x2="37.1897" y2="226.418" gradientUnits="userSpaceOnUse">
<stop stop-color="#FFC444"/>
<stop offset="0.9964" stop-color="#F36F56"/>
</linearGradient>
<linearGradient id="paint19_linear_113_111" x1="14.2428" y1="324.754" x2="3.90669" y2="466.041" gradientUnits="userSpaceOnUse">
<stop stop-color="#AA80F9"/>
<stop offset="0.9964" stop-color="#6165D7"/>
</linearGradient>
<linearGradient id="paint20_linear_113_111" x1="60.5332" y1="168.311" x2="48.7738" y2="153.387" gradientUnits="userSpaceOnUse">
<stop stop-color="#FFC444"/>
<stop offset="0.9964" stop-color="#F36F56"/>
</linearGradient>
<linearGradient id="paint21_linear_113_111" x1="51.3719" y1="162.913" x2="57.5298" y2="142.25" gradientUnits="userSpaceOnUse">
<stop stop-color="#444B8C"/>
<stop offset="0.9964" stop-color="#3E4177"/>
</linearGradient>
<linearGradient id="paint22_linear_113_111" x1="67.6575" y1="155.726" x2="49.8152" y2="147.625" gradientUnits="userSpaceOnUse">
<stop stop-color="#FFC444"/>
<stop offset="0.9964" stop-color="#F36F56"/>
</linearGradient>
<linearGradient id="paint23_linear_113_111" x1="100.846" y1="180.041" x2="262.79" y2="180.041" gradientUnits="userSpaceOnUse">
<stop stop-color="#311944"/>
<stop offset="1" stop-color="#893976"/>
</linearGradient>
<linearGradient id="paint24_linear_113_111" x1="199.303" y1="492.308" x2="180.741" y2="164.35" gradientUnits="userSpaceOnUse">
<stop offset="0.003597" stop-color="#F36F56"/>
<stop offset="1" stop-color="#FFC444"/>
</linearGradient>
<linearGradient id="paint25_linear_113_111" x1="122.692" y1="162.775" x2="239.209" y2="162.775" gradientUnits="userSpaceOnUse">
<stop offset="0.003597" stop-color="#F36F56"/>
<stop offset="1" stop-color="#FFC444"/>
</linearGradient>
<linearGradient id="paint26_linear_113_111" x1="118.573" y1="192.744" x2="235" y2="192.744" gradientUnits="userSpaceOnUse">
<stop offset="0.003597" stop-color="#F36F56"/>
<stop offset="1" stop-color="#FFC444"/>
</linearGradient>
<linearGradient id="paint27_linear_113_111" x1="175.799" y1="203.809" x2="150.76" y2="365.771" gradientUnits="userSpaceOnUse">
<stop offset="0.003597" stop-color="#F36F56"/>
<stop offset="1" stop-color="#FFC444"/>
</linearGradient>
<linearGradient id="paint28_linear_113_111" x1="184.361" y1="35.3362" x2="189.703" y2="197.614" gradientUnits="userSpaceOnUse">
<stop offset="0.003597" stop-color="#F36F56"/>
<stop offset="1" stop-color="#FFC444"/>
</linearGradient>
</defs>
</svg>